# xmcd CD database file
#
# Track frame offsets:
#	150
#	11208
#	22951
#	35208
#	46615
#	56433
#	66469
#	76622
#	88100
#	98942
#	111072
#	124917
#	136796
#	145712
#	151637
#	165556
#	176133
#	187462
#	198071
#	207356
#	227347
#	242527
#	248090
#
# Disc length: 3566 seconds
#
# Revision: 2
# Processed by: cddbd v1.5.2PL0 Copyright (c) Steve Scherf et al.
# Submitted via: CDex 1.70beta2
#
DISCID=2d0dec17
DTITLE=Herbie Mann with Tamiko Jones, João Gilberto, Antonio Carlos Jobim - A Mann and A Woman/Recorded in Rio De Janeiro
DYEAR=2001
DGENRE=Jazz
TTITLE0=A Man And a Woman (Barouh-Lai-Keller)
TTITLE1=Day Tripper (Lennon-McCartney)
TTITLE2=Come Back To Me (Lerner-Lane)
TTITLE3=Little Boat (Menescal-Pascoli-Kaye)
TTITLE4=It's Time Yhat You Settled Down (Fox-Sheppard)
TTITLE5=A Good Thing(Is Hard To Come By) (Jones)
TTITLE6=1-2-3 (Madara-White-Borisoff)
TTITLE7=Only Yesterday (Wisner)
TTITLE8=Sunny (Bobby Hebb)
TTITLE9=How Insensitive (Jobim-De Moraes-Gimbel)
TTITLE10=Sidewinder (Morgan)
TTITLE11=Amor Em Paz (Jobim-De Moraes)
TTITLE12=(Joao Gilberto) Desafinado (Jobim-Mendonça)
TTITLE13=(Joao Gilberto) Bolinha De Papel (Pereira)
TTITLE14=(Joao Gilberto) Insensatez (Jobim)
TTITLE15=Maria Ninguem (Lyra)
TTITLE16=(Joao Gilberto) O Barquinho (Menescal-Boscoli)
TTITLE17=(Joao Gilberto) Samba Da Minha Terra (Caymmi)
TTITLE18=(Joao Gilberto) Rosa Morena (Caymmi)
TTITLE19=Consolação (Powell)
TTITLE20=(Joao Gilberto) One Note Samba (Jobim-Mendonça)
TTITLE21=(Joao Gilberto) Bim Bom (Gilberto)
TTITLE22=Dave Ser Amor
EXTD=YEAR: 2001
EXTT0=
EXTT1=
EXTT2=
EXTT3=
EXTT4=
EXTT5=
EXTT6=
EXTT7=
EXTT8=
EXTT9=
EXTT10=
EXTT11=
EXTT12=
EXTT13=
EXTT14=
EXTT15=
EXTT16=
EXTT17=
EXTT18=
EXTT19=
EXTT20=
EXTT21=
EXTT22=
PLAYORDER=
